Coordinates
version=1
nRows=28
nColumns=38
inDegrees=no

Units are S.I. units (second, meters, Newtons, ...)
If the header above contains a line with 'inDegrees', this indicates whether rotational values are in degrees (yes) or radians (no).

endheader
time	pelvis_tilt	pelvis_list	pelvis_rotation	pelvis_tx	pelvis_ty	pelvis_tz	hip_flexion_r	hip_adduction_r	hip_rotation_r	knee_angle_r	ankle_angle_r	subtalar_angle_r	mtp_angle_r	hip_flexion_l	hip_adduction_l	hip_rotation_l	knee_angle_l	ankle_angle_l	subtalar_angle_l	mtp_angle_l	lumbar_extension	lumbar_bending	lumbar_rotation	arm_flex_r	arm_add_r	arm_rot_r	elbow_flex_r	pro_sup_r	wrist_flex_r	wrist_dev_r	arm_flex_l	arm_add_l	arm_rot_l	elbow_flex_l	pro_sup_l	wrist_flex_l	wrist_dev_l
9.24	0.0219145	1.28778	-1.64475	0.675394	0.0609423	0.965209	-0.481413	-0.00336349	-0.169486	0	0.0196106	0	0	-0.188377	-0.0242466	-0.298971	0.290836	0.0442021	0	0	-0.856658	-0.00944115	0.0476769	1.5708	-0.43478	1.5708	0.637934	0.233956	0	0	1.3267	-0.445136	0.892065	0.946902	0.715938	0	0
9.25	0.0212678	1.29055	-1.64407	0.675589	0.0600046	0.965079	-0.479934	-0.00308844	-0.169326	0	0.0195509	0	0	-0.186862	-0.0246142	-0.300201	0.290533	0.0444233	0	0	-0.858012	-0.0100975	0.0471675	1.5708	-0.427537	1.5708	0.622021	0.231866	0	0	1.3381	-0.438677	0.895498	0.934564	0.71779	0	0
9.26	0.0193288	1.29327	-1.64213	0.675808	0.059022	0.964911	-0.478597	-0.00254437	-0.169136	0	0.0194899	0	0	-0.185227	-0.0253974	-0.301469	0.290721	0.0451715	0	0	-0.859338	-0.0102767	0.0465253	1.5708	-0.419566	1.5708	0.606113	0.226891	0	0	1.34861	-0.432618	0.89767	0.922569	0.71641	0	0
9.27	0.018394	1.3022	-1.64658	0.675155	0.0578101	0.964211	-0.468968	-0.00364427	-0.175235	0	0.0261998	0	0	-0.179262	-0.024966	-0.304835	0.287361	0.046363	0	0	-0.854213	-0.0143556	0.0495175	1.5708	-0.408494	1.5708	0.583226	0.222245	0	0	1.35774	-0.425949	0.899661	0.909005	0.714889	0	0
9.28	0.0175303	1.30523	-1.64638	0.675402	0.0566729	0.963992	-0.467318	-0.00371778	-0.174632	0	0.025911	0	0	-0.177607	-0.0252514	-0.306647	0.287428	0.0475031	0	0	-0.854978	-0.0151029	0.0492145	1.5708	-0.400698	1.5708	0.566637	0.220798	0	0	1.36706	-0.419667	0.901779	0.897348	0.715971	0	0
9.29	0.0176455	1.30791	-1.64728	0.675616	0.0555774	0.963807	-0.465992	-0.00418919	-0.174134	0	0.0263466	0	0	-0.176256	-0.0251177	-0.307992	0.287519	0.0483124	0	0	-0.856272	-0.0160746	0.0487924	1.5708	-0.393366	1.5708	0.552251	0.213319	0	0	1.37664	-0.41353	0.90455	0.885466	0.722668	0	0
9.3	0.0182912	1.31052	-1.64898	0.675821	0.0544685	0.96359	-0.464789	-0.00486194	-0.173334	0	0.0279574	0	0	-0.174976	-0.0247341	-0.309188	0.287643	0.0491745	0	0	-0.857565	-0.0172595	0.0484285	1.5708	-0.38596	1.5708	0.537103	0.21209	0	0	1.38608	-0.407706	0.907963	0.874386	0.723398	0	0
9.31	0.0185811	1.3132	-1.65057	0.676033	0.0532273	0.96334	-0.463493	-0.00547082	-0.172451	0	0.0287511	0	0	-0.173672	-0.0243549	-0.31028	0.287853	0.0503609	0	0	-0.858799	-0.018475	0.0482117	1.5708	-0.3786	1.5708	0.521533	0.212454	0	0	1.395	-0.402286	0.911081	0.864528	0.720824	0	0
9.32	0.0126775	1.3083	-1.64009	0.677078	0.0524237	0.963747	-0.472007	-0.0033006	-0.163088	0	0.0195716	0	0	-0.176696	-0.0268635	-0.30842	0.294794	0.0514959	0	0	-0.868805	-0.014251	0.0444288	1.5708	-0.375598	1.5708	0.518176	0.213418	0	0	1.40698	-0.399144	0.91281	0.858444	0.720168	0	0
9.33	0.00961782	1.31041	-1.63911	0.677216	0.0512471	0.963572	-0.471259	-0.00346891	-0.161087	0	0.0186576	0	0	-0.176458	-0.0271743	-0.309868	0.294747	0.0534987	0	0	-0.87104	-0.0153121	0.0453281	1.5708	-0.368856	1.5708	0.504094	0.216847	0	0	1.41445	-0.393156	0.911308	0.848126	0.729321	0	0
9.34	0.00538723	1.31343	-1.63725	0.677383	0.0500005	0.963298	-0.469521	-0.00348831	-0.159584	0	0.0182699	0	0	-0.175228	-0.0278161	-0.311848	0.29502	0.0556664	0	0	-0.872474	-0.0162746	0.0465107	1.5708	-0.362743	1.5708	0.491677	0.216993	0	0	1.42123	-0.388518	0.910812	0.840509	0.73051	0	0
9.35	0.000733937	1.31618	-1.63513	0.67753	0.0487511	0.96304	-0.468046	-0.00345363	-0.157985	0	0.0180433	0	0	-0.174426	-0.0283737	-0.313861	0.295031	0.0573555	0	0	-0.87426	-0.0173099	0.0477844	1.5708	-0.356846	1.5708	0.479532	0.217501	0	0	1.42756	-0.384189	0.909582	0.833481	0.731954	0	0
9.36	-0.0037766	1.31871	-1.63331	0.677688	0.047506	0.962821	-0.466721	-0.00359602	-0.156209	0	0.0174099	0	0	-0.174102	-0.0287016	-0.315711	0.294434	0.0586261	0	0	-0.87639	-0.0184774	0.048985	1.5708	-0.351132	1.5708	0.468387	0.217477	0	0	1.43368	-0.380334	0.909523	0.8269	0.734616	0	0
9.37	-0.00806015	1.32113	-1.63195	0.677869	0.0462569	0.962608	-0.465524	-0.00397733	-0.154357	0	0.016718	0	0	-0.173915	-0.0288613	-0.317895	0.293726	0.0597769	0	0	-0.878665	-0.0197413	0.0503767	1.5708	-0.345607	1.5708	0.457629	0.218658	0	0	1.43924	-0.376562	0.910005	0.8204	0.73756	0	0
9.38	-0.0137789	1.32403	-1.62986	0.677986	0.0449382	0.962344	-0.463908	-0.00422803	-0.151731	0	0.0165144	0	0	-0.173392	-0.029342	-0.321007	0.293094	0.0612369	0	0	-0.880561	-0.0213347	0.0531205	1.5708	-0.34186	1.5708	0.4478	0.221028	0	0	1.444	-0.372622	0.910139	0.815103	0.738953	0	0
9.39	-0.0190075	1.32666	-1.62851	0.678053	0.0436554	0.962133	-0.462498	-0.0046646	-0.149012	0	0.0164817	0	0	-0.173212	-0.0295624	-0.323793	0.292273	0.0622061	0	0	-0.882901	-0.0231274	0.0553672	1.5708	-0.337048	1.5708	0.43802	0.223758	0	0	1.44815	-0.369266	0.909433	0.810053	0.739971	0	0
9.4	-0.0194548	1.32775	-1.63276	0.678098	0.0423187	0.962061	-0.462662	-0.00690487	-0.146599	0	0.0167696	0	0	-0.176364	-0.0274163	-0.325966	0.287705	0.0605208	0	0	-0.886797	-0.0264258	0.0573773	1.5708	-0.33223	1.5708	0.428379	0.223904	0	0	1.45195	-0.365702	0.907439	0.804852	0.74286	0	0
9.41	0.08289	1.32337	-1.76506	0.676855	0.0385044	0.963351	-0.463646	-0.0472559	-0.163831	0	0.0319081	0	0	-0.207396	0.0171516	-0.345014	0.236292	0.0387164	0	0	-0.889703	-0.065752	0.0597199	1.5708	-0.318098	1.5708	0.390157	0.219855	0	0	1.43959	-0.357263	0.903988	0.794376	0.745703	0	0
9.42	-0.0265197	1.33333	-1.63216	0.678422	0.0398645	0.961557	-0.459174	-0.00827583	-0.142587	0	0.0168125	0	0	-0.174739	-0.0272192	-0.32949	0.287186	0.0630735	0	0	-0.892145	-0.0298792	0.0608966	1.5708	-0.324331	1.5708	0.411505	0.223513	0	0	1.45768	-0.360526	0.905897	0.799596	0.739667	0	0
9.43	-0.0307256	1.33701	-1.63186	0.678644	0.0385661	0.961221	-0.456448	-0.00916134	-0.139762	0	0.0180405	0	0	-0.173279	-0.0271656	-0.333315	0.286609	0.0649301	0	0	-0.893939	-0.0314253	0.0636826	1.5708	-0.320404	1.5708	0.400109	0.2488	0	0	1.45617	-0.356044	0.894757	0.795165	0.778371	0	0
9.44	0.0761385	1.33148	-1.76975	0.677428	0.034637	0.962554	-0.458619	-0.0501787	-0.156594	0	0.0353494	0	0	-0.20654	0.0182926	-0.355044	0.233404	0.0435277	0	0	-0.898102	-0.071329	0.0668025	1.5708	-0.307885	1.5708	0.36347	0.230999	0	0	1.4396	-0.348664	0.894173	0.788878	0.768796	0	0
9.45	-0.0366838	1.34081	-1.63233	0.679105	0.0363128	0.96093	-0.454421	-0.0111223	-0.1364	0	0.018256	0	0	-0.17366	-0.0263636	-0.338555	0.285237	0.0672032	0	0	-0.90259	-0.0347826	0.0673393	1.5708	-0.315629	1.5708	0.389081	0.2378	0	0	1.4559	-0.35328	0.89173	0.796868	0.773619	0	0
9.46	-0.0454561	1.34552	-1.62701	0.679505	0.0351674	0.960515	-0.450204	-0.0110104	-0.132997	0	0.017113	0	0	-0.16919	-0.0280514	-0.343248	0.288549	0.0713641	0	0	-0.904476	-0.0345676	0.0708518	1.5708	-0.311124	1.5708	0.367313	0.434349	0	0	1.44947	-0.348466	0.868592	0.793314	0.856712	0	0
9.47	-0.0466879	1.34607	-1.63058	0.679822	0.0339132	0.960403	-0.450532	-0.0135716	-0.129889	0	0.0176723	0	0	-0.172782	-0.0257007	-0.346294	0.28396	0.0700239	0	0	-0.910518	-0.0368099	0.0730758	1.5708	-0.306276	1.5708	0.351886	0.551519	0	0	1.44527	-0.34757	0.859932	0.7943	0.887322	0	0
9.48	0.0457022	1.33057	-1.75002	0.678753	0.0308594	0.962636	-0.464137	-0.0506494	-0.138463	0	0.0294198	0	0	-0.212175	0.0152568	-0.363432	0.239672	0.0487097	0	0	-0.92883	-0.0702965	0.0710748	1.5708	-0.284965	1.53908	0.3039	0.720028	0	0	1.42871	-0.344199	0.847685	0.788903	0.929959	0	0
9.49	-0.0714293	1.38704	-1.60881	0.681863	0.0343115	0.957301	-0.402125	-0.01011	-0.13189	0	0.0200002	0	0	-0.109132	-0.038597	-0.361977	0.326102	0.0985575	0	0	-0.895838	-0.0261559	0.0771804	1.5708	-0.263257	1.26013	0.286426	0.906377	0	0	1.42291	-0.349171	0.803004	0.81788	1.00423	0	0
9.5	-0.0529975	1.359	-1.63191	0.680962	0.0313905	0.95935	-0.437677	-0.0166125	-0.125016	0	0.0177503	0	0	-0.158963	-0.026236	-0.354277	0.292636	0.0790139	0	0	-0.923672	-0.0384459	0.0764235	1.5708	-0.317361	1.50528	0.378349	0.769772	0	0	1.42951	-0.344728	0.838166	0.801757	0.960631	0	0
9.51	-0.0495896	1.35221	-1.63657	0.68095	0.0297058	0.959664	-0.447615	-0.0183968	-0.123317	0	0.0186215	0	0	-0.171373	-0.0237713	-0.35488	0.287106	0.0772139	0	0	-0.936442	-0.0424681	0.0745839	1.5708	-0.334843	1.5708	0.424101	0.564463	0	0	1.42466	-0.34819	0.837801	0.814841	0.916008	0	0
